<?xml version="1.0" encoding="UTF-8"?>
<svg xmlns="http://www.w3.org/2000/svg" viewBox="0 0 800 800" width="800" height="800">
  <path d="M540.8,228.5c-45.8-38.9-105.2-62.4-169.8-62.4c-145.9,0-264.1,118.2-264.1,264.1c0,48.5,13.1,93.9,35.9,133
    c8.7-14.1,19.2-27.9,31.8-40.7c45.8-47,113.3-65.6,169.3-58.4c39.2,7.2,71.9,27.9,95.8,46.5c39,30.3,72.2,54,116.7,58.3
    c57.5,3.9,103.7-30.3,125.5-55.9c3-4.3,6.5-9.8,9.8-15.9C672.3,423.8,638,311.4,540.8,228.5z M399.1,400
    c-33.3,0-60.4-27-60.4-60.4c0-33.3,27-60.4,60.4-60.4c33.3,0,60.4,27,60.4,60.4C459.5,373,432.5,400,399.1,400z" 
    fill="#000000"/>
</svg> 